<svg width="20" height="20" viewBox="0 0 20 20" fill="none" xmlns="http://www.w3.org/2000/svg">
    <path opacity="0.2"
          d="M20 10C20 15.5228 15.5228 20 10 20C4.47715 20 0 15.5228 0 10C0 4.47715 4.47715 0 10 0C15.5228 0 20 4.47715 20 10ZM1.72347 10C1.72347 14.571 5.429 18.2765 10 18.2765C14.571 18.2765 18.2765 14.571 18.2765 10C18.2765 5.429 14.571 1.72347 10 1.72347C5.429 1.72347 1.72347 5.429 1.72347 10Z"
          fill="#0b7bb1"/>
    <path d="M18.9186 8.00823C19.383 7.9045 19.8476 8.19682 19.911 8.66851C20.1675 10.5777 19.8677 12.5272 19.0382 14.2792C18.0853 16.2918 16.4879 17.9288 14.4993 18.9306C12.5107 19.9325 10.2445 20.242 8.06009 19.81C5.87564 19.3781 3.89786 18.2294 2.44024 16.546C0.982609 14.8626 0.128532 12.7409 0.0133801 10.5171C-0.101772 8.29336 0.52859 6.09477 1.80455 4.26985C3.08051 2.44493 4.92907 1.09809 7.05721 0.442803C8.90991 -0.127665 10.8822 -0.145598 12.7351 0.381292C13.1929 0.511468 13.4157 1.01305 13.2467 1.45792C13.0776 1.9028 12.5805 2.12165 12.1205 1.99971C10.6288 1.60433 9.05015 1.63248 7.56439 2.08996C5.80303 2.63231 4.27307 3.74703 3.21701 5.25743C2.16096 6.76783 1.63924 8.58749 1.73455 10.428C1.82985 12.2685 2.53673 14.0246 3.74314 15.4178C4.94955 16.8111 6.58647 17.7618 8.39443 18.1193C10.2024 18.4768 12.078 18.2207 13.7239 17.3915C15.3698 16.5623 16.6918 15.2074 17.4805 13.5417C18.1457 12.1367 18.3993 10.5782 18.2213 9.04534C18.1664 8.57259 18.4541 8.11197 18.9186 8.00823Z"
          fill="#2b9ad0"/>
</svg>
